# xmcd
#
# Track frame offsets:
#	150
#	17247
#	37377
#	50632
#	65157
#	77032
#	90990
#	105315
#	115172
#	131227
#	149907
#	158927
#
# Disc length: 2391 seconds
#
# Revision: 0
# Processed by: cddbd v1.5.2PL0 Copyright (c) Steve Scherf et al.
# Submitted via: EasyCDDAExtractor 10.2.0.1
#
DISCID=b109550c
DTITLE=Various Artist - Skyvision Vol. 2-94
DYEAR=1994
DGENRE=Gospel
TTITLE0=The Dixie Echoes - With JustThree Nails
TTITLE1=The McFalls - I Go To War On My Knees
TTITLE2=Samanthia Cassidy - Anytime
TTITLE3=Kevin Wright - My Best Friend Rides The Wind
TTITLE4=Sound and Spirit - I'll Abide
TTITLE5=Joe Russell - When I Cross Over
TTITLE6=Misti - Time
TTITLE7=Forgiven - Smart Making Plans
TTITLE8=The Dosses - When The Cross Gets Too Heavy
TTITLE9=Fred Atkins - My Great Loss Today
TTITLE10=The Barrows - It's Gonna Be Alright
TTITLE11=The Russell Family - Tree Of Calvary
EXTD=
EXTT0=
EXTT1=
EXTT2=
EXTT3=
EXTT4=
EXTT5=
EXTT6=
EXTT7=
EXTT8=
EXTT9=
EXTT10=
EXTT11=
PLAYORDER=
